<svg width="40" height="40" viewBox="0 0 40 40" fill="none" xmlns="http://www.w3.org/2000/svg">
<g clip-path="url(#clip0_16767_10)">
<path fill-rule="evenodd" clip-rule="evenodd" d="M103.446 14.3693C107.346 14.3693 111.125 16.6934 112.854 20.5897C113.485 22.0078 113.8 23.4619 113.8 24.88C113.8 28.8157 111.594 32.479 107.894 34.1301C106.595 34.7243 105.259 35 103.92 35C99.9801 35 96.2024 32.676 94.4721 28.7796C93.8781 27.3616 93.5631 25.9041 93.5631 24.4467C93.5631 20.5503 95.7292 16.8509 99.4681 15.1965C100.771 14.6451 102.107 14.3693 103.446 14.3693ZM9.26582 5C9.57763 5 9.7746 5.11817 9.97483 5.35451L20.0096 25.6668L30.0511 5.35451C30.2481 5.11817 30.445 5 30.7601 5H38.1591C38.5563 5 38.7499 5.19695 38.7499 5.59085V6.77257C38.7499 7.16647 38.5563 7.36013 38.1591 7.36013C37.2958 7.36013 36.4686 7.5177 35.7201 7.95099V28.4241C35.7201 30.5512 36.7049 32.1629 38.6318 32.1629C39.0257 32.1629 39.2259 32.3631 39.2259 32.757V33.9355C39.2259 34.3294 39.0257 34.5263 38.6318 34.5263H28.9088C28.5543 34.5263 28.3179 34.3294 28.3179 33.9355V32.757C28.3179 32.3631 28.5543 32.1629 28.9088 32.1629C30.8389 32.1629 31.7843 30.5512 31.7843 28.4241V13.5017L22.4913 32.3237C22.3731 32.5962 22.1401 32.757 21.8217 32.757H18.1977C17.8859 32.757 17.6495 32.5962 17.4919 32.3237L8.23837 13.5017V28.4241C8.23837 30.5512 9.18376 32.1629 11.1139 32.1629C11.4684 32.1629 11.7047 32.3631 11.7047 32.757V33.9355C11.7047 34.3294 11.4684 34.5263 11.1139 34.5263H1.38759C0.996958 34.5263 0.800003 34.3294 0.800003 33.9355V32.757C0.800003 32.3631 0.996958 32.1629 1.38759 32.1629C3.31774 32.1629 4.30252 30.5512 4.30252 28.4241V7.95099C3.55409 7.5177 2.72688 7.36013 1.86356 7.36013C1.46965 7.36013 1.2727 7.16647 1.2727 6.77257V5.59085C1.2727 5.19695 1.46965 5 1.86356 5H9.26582ZM48.9302 13.6226C49.009 13.6226 49.0091 13.6226 49.0451 13.6619V28.4267C49.0451 30.5505 49.9938 32.1623 51.9206 32.1623H52.0421C52.4361 32.1623 52.6297 32.3625 52.6297 32.7564V33.9348C52.6297 34.3287 52.354 34.5256 51.96 34.5256H40.8223C40.4283 34.5256 40.1526 34.3287 40.1526 33.9348V32.7564C40.1526 32.3625 40.3463 32.1623 40.7402 32.1623H40.8223C42.7491 32.1623 43.6945 30.5505 43.6551 28.4267V24.2513C43.6551 24.1708 43.6548 24.0894 43.654 24.0074L43.6524 23.8841C43.6243 22.1928 43.3499 20.2995 41.3311 20.0793C40.9371 20.0399 40.8584 19.8397 40.8584 19.5639V18.2279C40.8584 17.9128 41.0553 17.834 41.4492 17.7159C45.5853 16.3372 47.6303 14.801 48.6939 13.698C48.7333 13.6619 48.8121 13.6226 48.8515 13.6226H48.9302ZM62.8717 13.6212C62.9144 13.6212 62.9537 13.6212 62.9537 13.6607L62.0084 18.975C63.4232 15.9453 66.1411 14.3303 68.9379 14.3303C71.3768 14.3303 73.3827 15.7089 73.3827 18.3842C73.3827 19.5659 73.3072 20.5113 72.3615 20.9052L68.6622 22.402C68.544 22.4775 68.4258 22.4775 68.3077 22.4775C68.0713 22.4775 67.9531 22.3232 67.9531 22.1262C67.9531 22.0081 67.9926 21.8899 68.0319 21.7717C68.3438 21.0233 68.3864 20.3537 68.3864 19.8022C68.3864 18.3842 67.5986 17.7539 66.5383 17.7539C64.7264 17.7539 63.1475 19.7267 62.596 21.1809V28.4254C62.596 30.5493 63.5413 32.1642 65.4715 32.1642H65.5536C65.9442 32.1642 66.1411 32.3612 66.1411 32.7551V33.9368C66.1411 34.3307 65.9442 34.5244 65.5536 34.5244H54.0974C53.7002 34.5244 53.5032 34.3307 53.5032 33.9368V32.7551C53.5032 32.3612 53.7002 32.1642 54.0974 32.1642H54.1729C56.103 32.1642 57.0484 30.5493 57.0484 28.4254V23.3927L57.0478 23.2532L57.0466 23.1137C57.0247 21.1362 56.7705 19.162 54.7243 18.9356C54.3304 18.8996 54.2516 18.6993 54.2516 18.4235V17.0876C54.2516 16.7691 54.4486 16.6543 54.8425 16.5755C58.5847 15.9847 61.5751 14.4484 62.596 13.7C62.678 13.6607 62.7141 13.6212 62.7962 13.6212H62.8717ZM82.8429 13.6212C82.8853 13.6212 82.9249 13.6212 82.9249 13.6607L81.9799 18.975C83.3945 15.9453 86.1122 14.3303 88.9089 14.3303C91.3483 14.3303 93.3541 15.7089 93.3541 18.3842C93.3541 19.5659 93.2785 20.5113 92.3328 20.9052L88.6335 22.402C88.5155 22.4775 88.3969 22.4775 88.279 22.4775C88.0424 22.4775 87.9244 22.3232 87.9244 22.1262C87.9244 22.0081 87.964 21.8899 88.0035 21.7717C88.315 21.0233 88.3573 20.3537 88.3573 19.8022C88.3573 18.3842 87.5699 17.7539 86.5098 17.7539C84.6976 17.7539 83.1184 19.7267 82.5675 21.1809V28.4254C82.5675 30.5493 83.5125 32.1642 85.4427 32.1642H85.5246C85.9151 32.1642 86.1122 32.3612 86.1122 32.7551V33.9368C86.1122 34.3307 85.9151 34.5244 85.5246 34.5244H74.0685C73.6716 34.5244 73.4745 34.3307 73.4745 33.9368V32.7551C73.4745 32.3612 73.6716 32.1642 74.0685 32.1642H74.1441C76.0742 32.1642 77.0199 30.5493 77.0199 28.4254V23.4623L77.0192 23.2532C77.0072 21.2301 76.7897 19.1673 74.6956 18.9356C74.3016 18.8996 74.2232 18.6993 74.2232 18.4235V17.0876C74.2232 16.7691 74.4195 16.6543 74.8136 16.5755C78.556 15.9847 81.5463 14.4484 82.5675 13.7C82.6494 13.6607 82.6855 13.6212 82.7674 13.6212H82.8429ZM102.225 17.5205C101.713 17.5205 101.162 17.6387 100.65 17.8717C98.9165 18.6235 98.2505 20.1958 98.2505 22.0078C98.2505 23.4619 98.6834 25.0802 99.3537 26.6131C100.614 29.4099 102.695 31.8487 105.141 31.8487C105.653 31.8487 106.161 31.7306 106.713 31.4975C108.406 30.7459 109.077 29.1735 109.077 27.3616C109.077 25.9041 108.643 24.253 107.973 22.7562C106.752 19.9595 104.625 17.5205 102.225 17.5205ZM46.2943 5.39325C47.0001 5.39325 47.5516 5.66898 48.2606 6.378C48.9696 7.08703 49.2454 7.63849 49.2454 8.34424C49.2454 9.05326 48.9696 9.6474 48.2606 10.3138C47.5516 11.0228 47.0001 11.2985 46.2943 11.2985C45.5853 11.2985 44.9911 11.0228 44.3248 10.3138C43.6157 9.6474 43.34 9.05326 43.34 8.34424C43.34 7.63849 43.6157 7.08703 44.3248 6.378C44.9911 5.66898 45.5853 5.39325 46.2943 5.39325Z" fill="#3A5F56"/>
</g>
<defs>
<clipPath id="clip0_16767_10">
<rect width="40" height="40" fill="white"/>
</clipPath>
</defs>
</svg>
