<svg width="45" height="45" viewBox="0 0 45 45" fill="none" xmlns="http://www.w3.org/2000/svg">
<path fill-rule="evenodd" clip-rule="evenodd" d="M45 22.5C45 34.9264 34.9264 45 22.5 45C10.0736 45 0 34.9264 0 22.5C0 10.0736 10.0736 0 22.5 0C34.9264 0 45 10.0736 45 22.5ZM23.3063 16.6105C21.1178 17.5208 16.744 19.4048 10.1848 22.2624C9.11968 22.686 8.56173 23.1004 8.51094 23.5056C8.4251 24.1903 9.28258 24.4599 10.4502 24.8271C10.6091 24.877 10.7737 24.9288 10.9424 24.9836C12.0912 25.357 13.6366 25.7939 14.4399 25.8113C15.1687 25.8271 15.982 25.5266 16.88 24.91C23.0084 20.7731 26.172 18.6821 26.3706 18.637C26.5107 18.6052 26.7049 18.5653 26.8364 18.6822C26.968 18.7991 26.9551 19.0206 26.9411 19.08C26.8562 19.4422 23.4902 22.5714 21.7483 24.1909C21.2053 24.6957 20.8201 25.0537 20.7414 25.1356C20.565 25.3188 20.3853 25.492 20.2125 25.6586C19.1452 26.6875 18.3448 27.459 20.2568 28.719C21.1756 29.3244 21.9108 29.8252 22.6443 30.3247C23.4454 30.8702 24.2443 31.4142 25.278 32.0918C25.5414 32.2645 25.793 32.4439 26.0379 32.6185C26.9701 33.283 27.8077 33.8801 28.8424 33.785C29.4436 33.7296 30.0646 33.1642 30.38 31.4782C31.1254 27.4934 32.5906 18.8596 32.9291 15.3018C32.9588 14.9902 32.9215 14.5912 32.8915 14.416C32.8615 14.241 32.7989 13.9914 32.5713 13.8068C32.3018 13.588 31.8856 13.5419 31.6994 13.5452C30.8531 13.5601 29.5548 14.0115 23.3063 16.6105Z" fill="black"/>
</svg>
