<svg width="100" height="100" viewBox="0 0 100 100" fill="none" xmlns="http://www.w3.org/2000/svg">
<g clip-path="url(#clip0_9454_7)">
<circle cx="50" cy="50" r="46.5" fill="#D67E34" stroke="white" stroke-width="7"/>
<path d="M39.11 44.23L39.26 43.45C39.22 42.41 38.54 41.87 37.22 41.83C37.18 43.01 37.1 45 36.98 47.8C39.38 49.08 40.81 50.17 41.27 51.07C41.51 51.53 41.63 52.03 41.63 52.57C41.63 54.03 41.13 55.22 40.13 56.14C39.13 57.06 37.89 57.66 36.41 57.94C36.27 59.32 35.99 60.01 35.57 60.01C35.15 60.01 34.93 59.38 34.91 58.12C33.31 58.12 31.99 57.84 30.95 57.28C29.93 56.72 29.42 55.81 29.42 54.55C29.42 53.91 29.62 53.33 30.02 52.81C30.44 52.29 31.06 52.03 31.88 52.03C32.2 52.03 32.49 52.13 32.75 52.33C33.01 52.51 33.16 52.74 33.2 53.02C33.2 53.32 33.02 53.47 32.66 53.47C31.98 53.47 31.64 53.76 31.64 54.34C31.64 54.98 31.92 55.57 32.48 56.11C33.06 56.65 33.87 56.93 34.91 56.95C34.91 56.77 35.1 54.16 35.48 49.12C33.44 48.04 32.22 47.1 31.82 46.3C31.62 45.9 31.52 45.46 31.52 44.98C31.52 43.9 31.96 42.97 32.84 42.19C33.74 41.41 34.8 40.91 36.02 40.69C36.02 39.57 36.28 39.01 36.8 39.01C37.1 39.01 37.25 39.53 37.25 40.57C38.21 40.57 39.07 40.77 39.83 41.17C40.59 41.57 40.97 42.18 40.97 43C40.97 44.12 40.55 44.68 39.71 44.68C39.31 44.68 39.11 44.53 39.11 44.23ZM39.44 53.23C39.44 52.05 38.59 50.94 36.89 49.9C36.63 53.88 36.5 56.16 36.5 56.74C37.34 56.5 38.04 56.06 38.6 55.42C39.16 54.78 39.44 54.05 39.44 53.23ZM33.65 44.62C33.65 45.42 34.31 46.22 35.63 47.02L35.96 42.04C35.32 42.28 34.77 42.64 34.31 43.12C33.87 43.6 33.65 44.1 33.65 44.62ZM50.6134 53.17L44.7634 53.5C44.4234 53.5 44.1534 53.41 43.9534 53.23C43.7534 53.05 43.6534 52.86 43.6534 52.66C43.6534 52.44 43.9234 52.25 44.4634 52.09C44.6234 51.57 45.2434 50.02 46.3234 47.44C47.4234 44.86 48.0134 43.41 48.0934 43.09C48.1934 42.75 48.2934 42.36 48.3934 41.92C48.4934 41.48 48.5834 41.15 48.6634 40.93C48.7434 40.71 48.9134 40.48 49.1734 40.24C49.4334 40 49.7134 39.88 50.0134 39.88C50.3134 39.88 50.5234 40.01 50.6434 40.27C50.7834 40.53 50.8534 40.81 50.8534 41.11C50.8534 41.87 50.5934 42.65 50.0734 43.45C49.5534 44.23 48.8534 45.46 47.9734 47.14C47.0934 48.82 46.3634 50.42 45.7834 51.94C46.7434 51.94 47.7434 51.83 48.7834 51.61C49.8434 51.37 50.5634 51.22 50.9434 51.16C51.2434 47.68 51.6234 45.94 52.0834 45.94C52.3034 45.94 52.5234 46.09 52.7434 46.39C52.9834 46.69 53.1034 46.99 53.1034 47.29L52.8634 50.98C53.6434 50.98 54.3234 51.16 54.9034 51.52C55.5034 51.88 55.8034 52.27 55.8034 52.69C55.8034 53.21 55.4734 53.47 54.8134 53.47C54.5334 53.47 54.1734 53.42 53.7334 53.32C53.3134 53.2 52.9534 53.14 52.6534 53.14C52.6134 53.98 52.5934 55.28 52.5934 57.04C52.5934 57.4 52.4334 57.7 52.1134 57.94C51.8134 58.18 51.3834 58.3 50.8234 58.3C50.4234 58.3 50.2234 57.97 50.2234 57.31C50.2234 56.25 50.3534 54.87 50.6134 53.17ZM59.8963 44.35C59.8963 44.63 59.9863 45 60.1663 45.46C60.3663 45.9 60.4663 46.25 60.4663 46.51C60.4663 46.75 60.3763 46.99 60.1963 47.23C60.0363 47.47 59.8163 47.59 59.5363 47.59C59.2563 47.59 59.0163 47.36 58.8163 46.9C58.6363 46.44 58.5463 45.98 58.5463 45.52C58.5463 44.24 59.0563 43.2 60.0763 42.4C61.0963 41.6 62.2063 41.2 63.4063 41.2C64.6063 41.2 65.6363 41.53 66.4963 42.19C67.3763 42.85 67.8163 43.73 67.8163 44.83C67.8163 45.91 67.6063 46.84 67.1863 47.62C66.7863 48.4 66.3163 49.03 65.7763 49.51C65.2363 49.99 64.4263 50.7 63.3463 51.64C62.2863 52.58 61.3563 53.48 60.5563 54.34C61.2763 54.46 62.2663 54.71 63.5263 55.09C64.8063 55.45 65.5563 55.63 65.7763 55.63C66.5163 55.63 67.2163 55.09 67.8763 54.01C68.2163 53.43 68.4563 53.14 68.5963 53.14C68.7763 53.14 68.8663 53.26 68.8663 53.5C68.8663 54.06 68.5763 54.8 67.9963 55.72C67.4363 56.64 66.9263 57.28 66.4663 57.64C66.0063 57.98 65.3163 58.15 64.3963 58.15C64.1163 58.15 63.3863 57.82 62.2063 57.16C61.0263 56.5 60.0763 56.17 59.3563 56.17C58.7963 57.39 58.2863 58 57.8263 58C57.4863 58 57.2063 57.9 56.9863 57.7C56.7863 57.5 56.6863 57.18 56.6863 56.74C56.6863 56.3 56.9163 55.79 57.3763 55.21C57.8363 54.63 58.3663 54.3 58.9663 54.22C59.6463 53.5 60.4163 52.73 61.2763 51.91C62.1363 51.09 62.7463 50.49 63.1063 50.11C63.4863 49.73 63.8663 49.28 64.2463 48.76C64.6463 48.24 64.9063 47.73 65.0263 47.23C65.1663 46.73 65.2363 46.1 65.2363 45.34C65.2363 44.58 65.0063 43.92 64.5463 43.36C64.0863 42.78 63.4763 42.49 62.7163 42.49C61.9563 42.49 61.2963 42.63 60.7363 42.91C60.1763 43.19 59.8963 43.67 59.8963 44.35Z" fill="white"/>
</g>
<defs>
<clipPath id="clip0_9454_7">
<rect width="100" height="100" fill="white"/>
</clipPath>
</defs>
</svg>
