<svg width="30" height="30" viewBox="0 0 30 30" fill="none" xmlns="http://www.w3.org/2000/svg">
<path d="M29.5 15C29.5 23.0081 23.0081 29.5 15 29.5C6.99187 29.5 0.5 23.0081 0.5 15C0.5 6.99187 6.99187 0.5 15 0.5C23.0081 0.5 29.5 6.99187 29.5 15ZM15.3455 10.612C13.8828 11.2204 10.9656 12.477 6.59745 14.3801C6.22786 14.5275 5.91466 14.6851 5.68022 14.8592C5.45723 15.0248 5.2204 15.2687 5.17784 15.6082C5.14865 15.8411 5.20171 16.0603 5.32889 16.2473C5.44638 16.4201 5.60897 16.5391 5.75977 16.6249C6.03998 16.7843 6.42079 16.9039 6.77843 17.0163C6.79127 17.0203 6.80408 17.0244 6.81685 17.0284C6.92306 17.0618 7.03052 17.0956 7.14035 17.1313C7.53014 17.258 7.99072 17.3966 8.42551 17.5057C8.8487 17.6118 9.28732 17.7003 9.61581 17.7074C10.246 17.721 10.8907 17.4619 11.5347 17.02C13.4833 15.7046 14.9808 14.7005 16.028 14.0071C15.3818 14.6237 14.6677 15.2876 14.1585 15.761L14.1124 15.8038C13.7831 16.11 13.5297 16.3455 13.4674 16.4103C13.3573 16.5246 13.2441 16.6338 13.128 16.7458L13.1162 16.7572C12.9471 16.9201 12.763 17.0976 12.6145 17.2776C12.4638 17.4603 12.3095 17.692 12.2544 17.9713C12.1267 18.6185 12.5684 19.1279 13.2294 19.5635C13.8384 19.9648 14.3258 20.2967 14.8148 20.6297L14.8153 20.6301C15.3492 20.9937 15.885 21.3585 16.5779 21.8127C16.744 21.9216 16.9039 22.0355 17.0684 22.1528C17.0879 22.1667 17.1076 22.1808 17.1275 22.195C17.7005 22.6043 18.3969 23.1019 19.2741 23.0212C20.0332 22.9513 20.5256 22.2491 20.7448 21.0774C21.2414 18.4226 22.2224 12.6459 22.4505 10.2486C22.4757 9.98393 22.4454 9.67162 22.4205 9.52638C22.3952 9.37844 22.327 9.05782 22.0293 8.81624C21.86 8.67886 21.6665 8.61075 21.5189 8.57548C21.3681 8.53946 21.2256 8.5284 21.1241 8.53018C20.7522 8.53673 20.3269 8.64133 19.5152 8.93586C18.695 9.23351 17.4265 9.74644 15.3455 10.612ZM17.7791 12.8819C17.7789 12.8821 17.7756 12.8838 17.7699 12.8864C17.7764 12.883 17.7793 12.8817 17.7791 12.8819ZM17.5133 12.5028C17.5166 12.4971 17.5187 12.4941 17.5189 12.4941C17.519 12.4941 17.5174 12.4969 17.5135 12.5027L17.5133 12.5028Z" fill="#060606" stroke="white"/>
</svg>
