<svg width="45" height="45" viewBox="0 0 45 45" fill="none" xmlns="http://www.w3.org/2000/svg">
<path d="M14.4291 26.3112L14.4291 26.3112C13.9667 26.3012 13.3324 26.1748 12.6991 26.016C12.0542 25.8542 11.3691 25.6481 10.7879 25.4591C10.7879 25.4591 10.7879 25.4591 10.7878 25.4591L10.9424 24.9836C10.7737 24.9288 10.6091 24.877 10.4502 24.8271L14.4291 26.3112ZM14.4291 26.3112C15.3023 26.3301 16.2181 25.9707 17.1614 25.3233C20.2244 23.2557 22.5453 21.7002 24.1247 20.6562C24.9149 20.1339 25.5174 19.741 25.9338 19.4765C25.9565 19.4621 25.9786 19.4481 26.0001 19.4345C25.9928 19.4421 25.9855 19.4497 25.9781 19.4574C25.6304 19.8198 25.1529 20.29 24.6193 20.8038C23.5536 21.8298 22.2806 23.0133 21.4091 23.8236L21.4079 23.8247L21.7483 24.1909L21.4079 23.8247L21.3404 23.8874C20.8424 24.3504 20.4697 24.6969 20.3813 24.7887L14.4291 26.3112ZM8.01483 23.4434C7.97847 23.7333 8.04404 24.001 8.20007 24.2304C8.34641 24.4457 8.55421 24.6011 8.76328 24.72C9.15981 24.9456 9.70853 25.1181 10.2576 25.2906L10.3002 25.304L8.51094 23.5056M8.01483 23.4434L8.51094 23.5056M8.01483 23.4434C8.01483 23.4434 8.01482 23.4434 8.01482 23.4434L8.51094 23.5056M8.01483 23.4434C8.06584 23.0364 8.35339 22.7242 8.66939 22.4895C8.99691 22.2462 9.44543 22.0188 9.99242 21.8009M8.51094 23.5056C8.56173 23.1004 9.11968 22.686 10.1848 22.2624M9.99242 21.8009C9.98998 21.8019 9.98754 21.803 9.98511 21.8041L10.1848 22.2624M9.99242 21.8009C9.99496 21.7999 9.99751 21.7988 10.0001 21.7978L10.1848 22.2624M9.99242 21.8009C16.5469 18.9453 20.9221 17.0606 23.1143 16.1489C26.2367 14.8501 28.1341 14.083 29.3581 13.6388C30.5736 13.1977 31.1776 13.0543 31.6906 13.0453C31.8231 13.0429 32.0158 13.0576 32.2203 13.1064C32.4215 13.1545 32.6721 13.2447 32.8863 13.4185C32.8863 13.4185 32.8863 13.4185 32.8863 13.4185L32.5713 13.8068C32.7989 13.9914 32.8615 14.241 32.8915 14.416L10.1848 22.2624M26.4543 18.9658L26.4544 18.9656L26.4543 18.9658ZM26.4543 18.9658C26.4638 18.9255 26.4772 18.8966 26.4839 18.8841M26.4543 18.9658L26.4839 18.8841M26.4839 18.8841C26.487 18.8792 26.4882 18.877 26.488 18.8771C26.4878 18.8772 26.4862 18.8796 26.4839 18.8841ZM44.5 22.5C44.5 34.6502 34.6502 44.5 22.5 44.5C10.3498 44.5 0.5 34.6502 0.5 22.5C0.5 10.3498 10.3498 0.5 22.5 0.5C34.6502 0.5 44.5 10.3498 44.5 22.5Z" fill="#060606" stroke="white"/>
</svg>
