<svg width="30" height="30" viewBox="0 0 30 30" fill="none" xmlns="http://www.w3.org/2000/svg">
<path d="M9.61582 17.7074L9.61578 17.7074C9.28732 17.7003 8.84872 17.6118 8.42553 17.5056C7.99075 17.3966 7.53018 17.258 7.14039 17.1313C7.14039 17.1313 7.14038 17.1313 7.14038 17.1313L7.29494 16.6558C7.18244 16.6192 7.07275 16.5847 6.96681 16.5514L9.61582 17.7074ZM9.61582 17.7074C10.246 17.7211 10.8907 17.4619 11.5346 17.02C13.4833 15.7047 14.9808 14.7005 16.028 14.0071L9.61582 17.7074ZM5.68022 14.8592C5.45722 15.0248 5.2204 15.2687 5.17785 15.6082L22.4505 10.2485C22.4757 9.98391 22.4454 9.67157 22.4205 9.52627L22.4205 9.52622C22.3952 9.3785 22.327 9.05781 22.0292 8.81623C21.8599 8.67886 21.6665 8.61075 21.5189 8.5755C21.3681 8.53948 21.2256 8.52842 21.1241 8.5302C20.7522 8.53675 20.3269 8.64133 19.5152 8.93586C18.695 9.23352 17.4265 9.74644 15.3456 10.612C13.8829 11.2204 10.9656 12.477 6.59747 14.3801C6.22787 14.5275 5.91465 14.6851 5.68022 14.8592ZM17.7791 12.8819C17.7789 12.8821 17.7756 12.8838 17.7699 12.8864C17.7765 12.8829 17.7794 12.8816 17.7791 12.8819ZM17.5134 12.5027C17.5134 12.5027 17.5134 12.5028 17.5133 12.5029L17.5189 12.4941C17.519 12.4941 17.5174 12.4969 17.5134 12.5027ZM29.5 15C29.5 23.0081 23.0081 29.5 15 29.5C6.99189 29.5 0.5 23.0081 0.5 15C0.5 6.99189 6.99189 0.5 15 0.5C23.0081 0.5 29.5 6.99189 29.5 15Z" fill="#060606" stroke="white"/>
</svg>
