<svg width="30" height="30" viewBox="0 0 30 30" fill="none" xmlns="http://www.w3.org/2000/svg">
<path d="M0.759145 6.56626C0.501062 8.48585 0.5 10.9917 0.5 14.4V15.6C0.5 19.0083 0.501062 21.5141 0.759145 23.4337C1.01529 25.3389 1.51635 26.5916 2.46239 27.5376C3.40841 28.4837 4.66104 28.9847 6.56626 29.2409C8.48585 29.4989 10.9917 29.5 14.4 29.5H15.6C19.0083 29.5 21.5141 29.4989 23.4337 29.2409C25.3389 28.9847 26.5916 28.4837 27.5376 27.5376C27.5376 27.5376 27.5376 27.5376 27.5376 27.5376M0.759145 6.56626L27.8912 27.8912L27.5376 27.5376M0.759145 6.56626C1.01529 4.66105 1.51635 3.40842 2.46238 2.46238C3.40842 1.51635 4.66105 1.01529 6.56626 0.759145C8.48585 0.501062 10.9917 0.5 14.4 0.5H15.6C19.0083 0.5 21.5141 0.501062 23.4337 0.759145C25.3389 1.01529 26.5916 1.51635 27.5376 2.46238C28.4837 3.40841 28.9847 4.66104 29.2409 6.56626C29.4989 8.48585 29.5 10.9917 29.5 14.4V15.6C29.5 19.0083 29.4989 21.5141 29.2409 23.4337C28.9847 25.3389 28.4837 26.5916 27.5376 27.5376M0.759145 6.56626L27.5376 27.5376M5.06257 8.62506H4.55205L4.56268 9.13548C4.64549 13.1104 5.68165 16.3584 7.63067 18.6202C9.58968 20.8936 12.4213 22.1126 15.9626 22.1126H16.3501H16.8501V21.6126V17.7319C18.8595 18.1515 20.3937 19.7246 21.0489 21.7654L21.1604 22.1126H21.525H25.0751H25.7309L25.5572 21.4801C24.677 18.2753 22.5649 16.3016 20.9122 15.3063C22.4925 14.144 24.3255 12.0027 24.8173 9.21184L24.9208 8.62506H24.3249H21.0999H20.7217L20.6187 8.98899C20.2917 10.1453 19.6401 11.2558 18.8405 12.098C18.2109 12.7611 17.5178 13.2293 16.8501 13.4449V9.12506V8.62506H16.3501H13.125H12.625V9.12506V17.0677C11.0029 16.3136 9.08447 14.0517 8.98747 9.11524L8.97783 8.62506H8.48756H5.06257Z" fill="#060606" stroke="white"/>
</svg>
