<svg width="45" height="45" viewBox="0 0 45 45" fill="none" xmlns="http://www.w3.org/2000/svg">
<path d="M44.5 22.5C44.5 34.6503 34.6503 44.5 22.5 44.5C10.3497 44.5 0.5 34.6503 0.5 22.5C0.5 10.3497 10.3497 0.5 22.5 0.5C34.6503 0.5 44.5 10.3497 44.5 22.5ZM23.1143 16.1488C20.9221 17.0606 16.5469 18.9452 9.99244 21.8009C9.44544 22.0189 8.99691 22.2463 8.66939 22.4895C8.3534 22.7242 8.06584 23.0364 8.01482 23.4434C7.97847 23.7333 8.04404 24.001 8.20007 24.2304C8.34641 24.4457 8.55421 24.6011 8.76328 24.72C9.1598 24.9456 9.7085 25.1181 10.2576 25.2906L10.3003 25.3041C10.4594 25.3541 10.6217 25.4052 10.7878 25.4591C11.3691 25.6481 12.0542 25.8543 12.6991 26.016C13.3324 26.1748 13.9667 26.3012 14.4291 26.3112C15.3023 26.3301 16.2181 25.9707 17.1614 25.3233C20.2244 23.2556 22.5453 21.7002 24.1247 20.6562C24.9148 20.134 25.5174 19.7411 25.9338 19.4765C25.9565 19.4621 25.9786 19.4481 26 19.4345C25.9928 19.4421 25.9855 19.4497 25.9781 19.4574C25.6304 19.8197 25.1529 20.29 24.6193 20.8037C23.5532 21.8302 22.2795 23.0143 21.4079 23.8246L21.357 23.872C20.8497 24.3436 20.4697 24.6968 20.3812 24.7888C20.2123 24.9642 20.0392 25.1312 19.8654 25.2987L19.8528 25.3109C19.5955 25.5589 19.3281 25.8167 19.1145 26.0755C18.8988 26.3371 18.6977 26.6462 18.6269 27.0054C18.4677 27.8122 19.002 28.4909 19.9816 29.1365C20.8969 29.7396 21.6294 30.2384 22.3629 30.7379L22.3634 30.7383C23.1644 31.2838 23.9664 31.8299 25.0039 32.51C25.2578 32.6765 25.5015 32.8501 25.7477 33.0256C25.7699 33.0415 25.7922 33.0574 25.8146 33.0734C26.692 33.6995 27.6669 34.3952 28.8882 34.2828C29.8478 34.1945 30.5472 33.3038 30.8715 31.5701C31.6165 27.5871 33.0859 18.9324 33.4269 15.3492C33.462 14.9806 33.4192 14.5354 33.3844 14.3317C33.3491 14.1254 33.26 13.7216 32.8864 13.4185C32.6721 13.2447 32.4215 13.1545 32.2203 13.1064C32.0158 13.0575 31.8231 13.0429 31.6906 13.0452C31.1776 13.0543 30.5736 13.1977 29.3581 13.6388C28.1341 14.083 26.2367 14.8501 23.1143 16.1488ZM26.4839 18.8841C26.4863 18.8796 26.4878 18.8772 26.488 18.8771C26.4882 18.877 26.487 18.8792 26.4839 18.8841Z" fill="#060606" stroke="white"/>
</svg>
