<svg width="45" height="45" viewBox="0 0 45 45" fill="none" xmlns="http://www.w3.org/2000/svg">
<path d="M7.59386 13.1876H7.08334L7.09397 13.698C7.21741 19.623 8.76138 24.4319 11.6354 27.7671C14.5194 31.1139 18.6932 32.9188 23.9438 32.9188H24.5252H25.0252V32.4188V26.2963C28.2894 26.8481 30.7739 29.3401 31.8114 32.5717L31.9229 32.9188H32.2875H37.6126H38.2684L38.0947 32.2864C36.7351 27.336 33.3843 24.3761 30.9082 22.9805C33.3022 21.3277 36.223 18.0691 36.9798 13.7744L37.0832 13.1876H36.4874H31.6498H31.2716L31.1687 13.5515C30.6666 15.3266 29.6682 17.0277 28.4421 18.3191C27.3801 19.4376 26.1817 20.2139 25.0252 20.4983V13.6876V13.1876H24.5252H19.6875H19.1875V13.6876V25.9798C16.569 24.9687 13.3849 21.4963 13.2312 13.6778L13.2216 13.1876H12.7313H7.59386ZM0.5 21.6C0.5 16.4947 0.501062 12.716 0.890947 9.81607C1.2789 6.93053 2.04356 4.99004 3.5168 3.5168C4.99004 2.04356 6.93053 1.2789 9.81607 0.890947C12.716 0.501062 16.4947 0.5 21.6 0.5H23.4C28.5053 0.5 32.284 0.501062 35.1839 0.890947C38.0695 1.2789 40.01 2.04356 41.4832 3.5168C42.9565 4.99004 43.7211 6.93053 44.1091 9.81607C44.4989 12.716 44.5 16.4947 44.5 21.6V23.4C44.5 28.5053 44.4989 32.284 44.1091 35.1839C43.7211 38.0695 42.9565 40.01 41.4832 41.4832C40.01 42.9565 38.0695 43.7211 35.1839 44.1091C32.284 44.4989 28.5053 44.5 23.4 44.5H21.6C16.4947 44.5 12.716 44.4989 9.81607 44.1091C6.93053 43.7211 4.99004 42.9565 3.5168 41.4832C2.04356 40.01 1.2789 38.0695 0.890947 35.1839C0.501062 32.284 0.5 28.5053 0.5 23.4V21.6Z" fill="#060606" stroke="white"/>
</svg>
